# This file uses centimeters as units for non-parametric coordinates.

mtllib thing.mtl
g default
v 0.000000 0.131165 0.000000
v 0.723607 0.683946 0.525725
v -0.276388 0.683945 0.850649
v -0.894426 0.683949 0.000000
v -0.276388 0.683945 -0.850649
v 0.723607 0.683946 -0.525725
v 0.276388 1.578385 0.850649
v -0.723607 1.578385 0.525725
v -0.723607 1.578385 -0.525725
v 0.276388 1.578385 -0.850649
v 0.894426 1.578381 0.000000
v 0.000000 2.131165 0.000000
v -0.162456 0.280511 0.499995
v 0.425323 0.280511 0.309011
v 0.262869 0.605427 0.809012
v 0.850648 0.605429 0.000000
v 0.425323 0.280511 -0.309011
v -0.525730 0.280513 0.000000
v -0.688189 0.605429 0.499997
v -0.162456 0.280511 -0.499995
v -0.688189 0.605429 -0.499997
v 0.262869 0.605427 -0.809012
v 0.951058 1.131165 0.309013
v 0.951058 1.131165 -0.309013
v 0.000000 1.131165 1.000000
v 0.587786 1.131165 0.809017
v -0.951058 1.131165 0.309013
v -0.587786 1.131165 0.809017
v -0.587786 1.131165 -0.809017
v -0.951058 1.131165 -0.309013
v 0.587786 1.131165 -0.809017
v 0.000000 1.131165 -1.000000
v 0.688189 1.656901 0.499997
v -0.262869 1.656903 0.809012
v -0.850648 1.656901 0.000000
v -0.262869 1.656903 -0.809012
v 0.688189 1.656901 -0.499997
v 0.162456 1.981819 0.499995
v 0.525730 1.981817 0.000000
v -0.425323 1.981819 0.309011
v -0.425323 1.981819 -0.309011
v 0.162456 1.981819 -0.499995
vn 0.102381 -0.943523 0.315091
vn 0.102381 -0.943523 0.315091
vn 0.102381 -0.943523 0.315091
vn 0.700224 -0.661698 0.268033
vn 0.700224 -0.661698 0.268033
vn 0.700224 -0.661698 0.268033
vn -0.268034 -0.943523 0.194737
vn -0.268034 -0.943523 0.194737
vn -0.268034 -0.943523 0.194737
vn -0.268034 -0.943523 -0.194737
vn -0.268034 -0.943523 -0.194737
vn -0.268034 -0.943523 -0.194737
vn 0.102381 -0.943523 -0.315091
vn 0.102381 -0.943523 -0.315091
vn 0.102381 -0.943523 -0.315091
vn 0.904988 -0.330385 0.268033
vn 0.904988 -0.330385 0.268033
vn 0.904988 -0.330385 0.268033
vn 0.024746 -0.330386 0.943522
vn 0.024745 -0.330386 0.943521
vn 0.024746 -0.330386 0.943522
vn -0.889697 -0.330386 0.315095
vn -0.889697 -0.330386 0.315095
vn -0.889697 -0.330386 0.315095
vn -0.574602 -0.330389 -0.748783
vn -0.574602 -0.330389 -0.748783
vn -0.574602 -0.330389 -0.748783
vn 0.534577 -0.330387 -0.777863
vn 0.534577 -0.330387 -0.777863
vn 0.534577 -0.330387 -0.777863
vn 0.802609 -0.125629 0.583126
vn 0.802609 -0.125629 0.583126
vn 0.802609 -0.125629 0.583126
vn -0.306568 -0.125630 0.943522
vn -0.306568 -0.125630 0.943522
vn -0.306568 -0.125630 0.943522
vn -0.992077 -0.125629 0.000000
vn -0.992077 -0.125629 0.000000
vn -0.992077 -0.125629 0.000000
vn -0.306568 -0.125630 -0.943522
vn -0.306568 -0.125630 -0.943522
vn -0.306568 -0.125630 -0.943522
vn 0.802609 -0.125629 -0.583126
vn 0.802609 -0.125629 -0.583126
vn 0.802609 -0.125629 -0.583126
vn 0.408946 0.661699 0.628425
vn 0.408946 0.661699 0.628425
vn 0.408946 0.661699 0.628425
vn -0.471301 0.661699 0.583121
vn -0.471301 0.661699 0.583121
vn -0.471301 0.661699 0.583121
vn -0.700224 0.661699 -0.268032
vn -0.700224 0.661699 -0.268032
vn -0.700224 0.661699 -0.268032
vn 0.038532 0.661700 -0.748778
vn 0.038532 0.661700 -0.748778
vn 0.038532 0.661700 -0.748778
vn 0.724042 0.661695 -0.194737
vn 0.724042 0.661695 -0.194737
vn 0.724043 0.661695 -0.194737
vn 0.268034 0.943523 -0.194737
vn 0.268034 0.943523 -0.194737
vn 0.268034 0.943523 -0.194737
vn 0.491119 0.794657 -0.356822
vn 0.491119 0.794657 -0.356822
vn 0.491119 0.794657 -0.356822
vn 0.408946 0.661699 -0.628425
vn 0.408946 0.661699 -0.628425
vn 0.408946 0.661699 -0.628425
vn -0.102381 0.943523 -0.315091
vn -0.102381 0.943523 -0.315091
vn -0.102381 0.943523 -0.315091
vn -0.187593 0.794658 -0.577345
vn -0.187593 0.794658 -0.577345
vn -0.187593 0.794658 -0.577345
vn -0.471301 0.661699 -0.583121
vn -0.471301 0.661699 -0.583121
vn -0.471301 0.661699 -0.583121
vn -0.331305 0.943524 0.000000
vn -0.331305 0.943524 0.000000
vn -0.331305 0.943524 0.000000
vn -0.607060 0.794656 0.000000
vn -0.607060 0.794656 0.000000
vn -0.607060 0.794656 0.000000
vn -0.700224 0.661699 0.268032
vn -0.700224 0.661699 0.268032
vn -0.700224 0.661699 0.268032
vn -0.102381 0.943523 0.315091
vn -0.102381 0.943523 0.315091
vn -0.102381 0.943523 0.315091
vn -0.187593 0.794658 0.577345
vn -0.187593 0.794658 0.577345
vn -0.187593 0.794658 0.577345
vn 0.038532 0.661700 0.748778
vn 0.038532 0.661700 0.748778
vn 0.038532 0.661700 0.748778
vn 0.268034 0.943523 0.194737
vn 0.268034 0.943523 0.194737
vn 0.268034 0.943523 0.194737
vn 0.491119 0.794657 0.356822
vn 0.491119 0.794657 0.356822
vn 0.491119 0.794657 0.356822
vn 0.724042 0.661695 0.194737
vn 0.724042 0.661695 0.194737
vn 0.724043 0.661695 0.194737
vn 0.889697 0.330386 -0.315095
vn 0.889697 0.330386 -0.315095
vn 0.889697 0.330386 -0.315095
vn 0.794656 0.187596 -0.577347
vn 0.794656 0.187596 -0.577347
vn 0.794656 0.187596 -0.577347
vn 0.574602 0.330389 -0.748783
vn 0.574602 0.330389 -0.748783
vn 0.574602 0.330389 -0.748783
vn -0.024746 0.330386 -0.943521
vn -0.024746 0.330386 -0.943522
vn -0.024746 0.330386 -0.943521
vn -0.303530 0.187597 -0.934172
vn -0.303530 0.187597 -0.934172
vn -0.303530 0.187597 -0.934172
vn -0.534577 0.330387 -0.777864
vn -0.534577 0.330387 -0.777864
vn -0.534577 0.330387 -0.777864
vn -0.904989 0.330385 -0.268032
vn -0.904989 0.330385 -0.268032
vn -0.904989 0.330385 -0.268032
vn -0.982246 0.187598 0.000000
vn -0.982246 0.187598 0.000000
vn -0.982246 0.187598 0.000000
vn -0.904989 0.330385 0.268032
vn -0.904989 0.330385 0.268032
vn -0.904989 0.330385 0.268032
vn -0.534577 0.330387 0.777864
vn -0.534577 0.330387 0.777864
vn -0.534577 0.330387 0.777864
vn -0.303530 0.187597 0.934172
vn -0.303530 0.187597 0.934172
vn -0.303530 0.187597 0.934172
vn -0.024746 0.330386 0.943521
vn -0.024746 0.330386 0.943521
vn -0.024746 0.330386 0.943522
vn 0.574602 0.330389 0.748783
vn 0.574602 0.330389 0.748783
vn 0.574602 0.330389 0.748783
vn 0.794656 0.187596 0.577347
vn 0.794656 0.187596 0.577347
vn 0.794656 0.187596 0.577347
vn 0.889697 0.330386 0.315095
vn 0.889697 0.330386 0.315095
vn 0.889697 0.330386 0.315095
vn 0.306569 0.125630 -0.943522
vn 0.306569 0.125630 -0.943522
vn 0.306569 0.125630 -0.943522
vn 0.303530 -0.187597 -0.934172
vn 0.303530 -0.187597 -0.934172
vn 0.303530 -0.187597 -0.934172
vn 0.024745 -0.330386 -0.943521
vn 0.024746 -0.330386 -0.943522
vn 0.024746 -0.330386 -0.943522
vn -0.802609 0.125629 -0.583126
vn -0.802609 0.125629 -0.583126
vn -0.802609 0.125629 -0.583126
vn -0.794656 -0.187596 -0.577348
vn -0.794656 -0.187596 -0.577348
vn -0.794656 -0.187596 -0.577348
vn -0.889697 -0.330386 -0.315095
vn -0.889697 -0.330386 -0.315095
vn -0.889697 -0.330386 -0.315095
vn -0.802609 0.125629 0.583126
vn -0.802609 0.125629 0.583126
vn -0.802609 0.125629 0.583126
vn -0.794656 -0.187596 0.577348
vn -0.794656 -0.187596 0.577348
vn -0.794656 -0.187596 0.577348
vn -0.574602 -0.330389 0.748783
vn -0.574602 -0.330389 0.748783
vn -0.574602 -0.330389 0.748783
vn 0.306569 0.125630 0.943522
vn 0.306569 0.125630 0.943522
vn 0.306569 0.125630 0.943522
vn 0.303530 -0.187597 0.934172
vn 0.303530 -0.187597 0.934172
vn 0.303530 -0.187597 0.934172
vn 0.534577 -0.330387 0.777863
vn 0.534577 -0.330387 0.777863
vn 0.534577 -0.330387 0.777863
vn 0.992077 0.125629 0.000000
vn 0.992077 0.125629 0.000000
vn 0.992077 0.125629 0.000000
vn 0.982246 -0.187598 0.000000
vn 0.982246 -0.187598 0.000000
vn 0.982246 -0.187598 0.000000
vn 0.904988 -0.330385 -0.268033
vn 0.904988 -0.330385 -0.268033
vn 0.904988 -0.330385 -0.268033
vn 0.471301 -0.661698 -0.583121
vn 0.471302 -0.661698 -0.583121
vn 0.471301 -0.661698 -0.583121
vn 0.187593 -0.794659 -0.577344
vn 0.187593 -0.794659 -0.577344
vn 0.187593 -0.794659 -0.577344
vn -0.038532 -0.661700 -0.748778
vn -0.038532 -0.661700 -0.748778
vn -0.038532 -0.661700 -0.748778
vn -0.408946 -0.661699 -0.628425
vn -0.408946 -0.661699 -0.628425
vn -0.408946 -0.661699 -0.628425
vn -0.491119 -0.794657 -0.356822
vn -0.491119 -0.794657 -0.356822
vn -0.491119 -0.794657 -0.356822
vn -0.724042 -0.661695 -0.194737
vn -0.724042 -0.661695 -0.194737
vn -0.724042 -0.661695 -0.194737
vn -0.724042 -0.661695 0.194737
vn -0.724042 -0.661695 0.194737
vn -0.724042 -0.661695 0.194737
vn -0.491119 -0.794657 0.356822
vn -0.491119 -0.794657 0.356822
vn -0.491119 -0.794657 0.356822
vn -0.408946 -0.661699 0.628425
vn -0.408946 -0.661699 0.628425
vn -0.408946 -0.661699 0.628425
vn 0.700224 -0.661698 -0.268033
vn 0.700224 -0.661698 -0.268033
vn 0.700224 -0.661698 -0.268033
vn 0.607060 -0.794656 0.000000
vn 0.607060 -0.794656 0.000000
vn 0.607060 -0.794656 0.000000
vn 0.331305 -0.943524 0.000000
vn 0.331305 -0.943524 0.000000
vn 0.331305 -0.943524 0.000000
vn -0.038532 -0.661700 0.748778
vn -0.038532 -0.661700 0.748778
vn -0.038532 -0.661700 0.748778
vn 0.187593 -0.794659 0.577344
vn 0.187593 -0.794659 0.577344
vn 0.187593 -0.794659 0.577344
vn 0.471301 -0.661698 0.583121
vn 0.471302 -0.661698 0.583121
vn 0.471302 -0.661698 0.583121
s off
g sphere:Mesh
usemtl initialShadingGroup
f 1//1 14//2 13//3
f 2//4 14//5 16//6
f 1//7 13//8 18//9
f 1//10 18//11 20//12
f 1//13 20//14 17//15
f 2//16 16//17 23//18
f 3//19 15//20 25//21
f 4//22 19//23 27//24
f 5//25 21//26 29//27
f 6//28 22//29 31//30
f 2//31 23//32 26//33
f 3//34 25//35 28//36
f 4//37 27//38 30//39
f 5//40 29//41 32//42
f 6//43 31//44 24//45
f 7//46 33//47 38//48
f 8//49 34//50 40//51
f 9//52 35//53 41//54
f 10//55 36//56 42//57
f 11//58 37//59 39//60
f 39//61 42//62 12//63
f 39//64 37//65 42//66
f 37//67 10//68 42//69
f 42//70 41//71 12//72
f 42//73 36//74 41//75
f 36//76 9//77 41//78
f 41//79 40//80 12//81
f 41//82 35//83 40//84
f 35//85 8//86 40//87
f 40//88 38//89 12//90
f 40//91 34//92 38//93
f 34//94 7//95 38//96
f 38//97 39//98 12//99
f 38//100 33//101 39//102
f 33//103 11//104 39//105
f 24//106 37//107 11//108
f 24//109 31//110 37//111
f 31//112 10//113 37//114
f 32//115 36//116 10//117
f 32//118 29//119 36//120
f 29//121 9//122 36//123
f 30//124 35//125 9//126
f 30//127 27//128 35//129
f 27//130 8//131 35//132
f 28//133 34//134 8//135
f 28//136 25//137 34//138
f 25//139 7//140 34//141
f 26//142 33//143 7//144
f 26//145 23//146 33//147
f 23//148 11//149 33//150
f 31//151 32//152 10//153
f 31//154 22//155 32//156
f 22//157 5//158 32//159
f 29//160 30//161 9//162
f 29//163 21//164 30//165
f 21//166 4//167 30//168
f 27//169 28//170 8//171
f 27//172 19//173 28//174
f 19//175 3//176 28//177
f 25//178 26//179 7//180
f 25//181 15//182 26//183
f 15//184 2//185 26//186
f 23//187 24//188 11//189
f 23//190 16//191 24//192
f 16//193 6//194 24//195
f 17//196 22//197 6//198
f 17//199 20//200 22//201
f 20//202 5//203 22//204
f 20//205 21//206 5//207
f 20//208 18//209 21//210
f 18//211 4//212 21//213
f 18//214 19//215 4//216
f 18//217 13//218 19//219
f 13//220 3//221 19//222
f 16//223 17//224 6//225
f 16//226 14//227 17//228
f 14//229 1//230 17//231
f 13//232 15//233 3//234
f 13//235 14//236 15//237
f 14//238 2//239 15//240
g default
v -2.000000 -3.100000 2.000000
v 2.000000 -3.100000 2.000000
v -2.000000 -2.900000 2.000000
v 2.000000 -2.900000 2.000000
v -2.000000 -2.900000 -2.000000
v 2.000000 -2.900000 -2.000000
v -2.000000 -3.100000 -2.000000
v 2.000000 -3.100000 -2.000000
vt 0.375000 0.000000
vt 0.625000 0.000000
vt 0.375000 0.250000
vt 0.625000 0.250000
vt 0.375000 0.500000
vt 0.625000 0.500000
vt 0.375000 0.750000
vt 0.625000 0.750000
vt 0.375000 1.000000
vt 0.625000 1.000000
vt 0.875000 0.000000
vt 0.875000 0.250000
vt 0.125000 0.000000
vt 0.125000 0.250000
vn 0.000000 0.000000 1.000000
vn 0.000000 0.000000 1.000000
vn 0.000000 0.000000 1.000000
vn 0.000000 0.000000 1.000000
vn 0.000000 1.000000 0.000000
vn 0.000000 1.000000 0.000000
vn 0.000000 1.000000 0.000000
vn 0.000000 1.000000 0.000000
vn 0.000000 0.000000 -1.000000
vn 0.000000 0.000000 -1.000000
vn 0.000000 0.000000 -1.000000
vn 0.000000 0.000000 -1.000000
vn 0.000000 -1.000000 0.000000
vn 0.000000 -1.000000 0.000000
vn 0.000000 -1.000000 0.000000
vn 0.000000 -1.000000 0.000000
vn 1.000000 0.000000 0.000000
vn 1.000000 0.000000 0.000000
vn 1.000000 0.000000 0.000000
vn 1.000000 0.000000 0.000000
vn -1.000000 0.000000 0.000000
vn -1.000000 0.000000 0.000000
vn -1.000000 0.000000 0.000000
vn -1.000000 0.000000 0.000000
s off
g pCube1
usemtl initialShadingGroup
f 43/1/241 44/2/242 46/4/243 45/3/244
f 45/3/245 46/4/246 48/6/247 47/5/248
f 47/5/249 48/6/250 50/8/251 49/7/252
f 49/7/253 50/8/254 44/10/255 43/9/256
f 44/2/257 50/11/258 48/12/259 46/4/260
f 49/13/261 43/1/262 45/3/263 47/14/264
